<?xml version="1.0" standalone="no"?>
<!DOCTYPE svg PUBLIC "-//W3C//DTD SVG 20010904//EN"
 "http://www.w3.org/TR/2001/REC-SVG-20010904/DTD/svg10.dtd">
<svg version="1.0" xmlns="http://www.w3.org/2000/svg"
 width="1024.000000pt" height="1024.000000pt" viewBox="0 0 1024.000000 1024.000000"
 preserveAspectRatio="xMidYMid meet">

<g transform="translate(0.000000,1024.000000) scale(0.100000,-0.100000)"
fill="#000000" stroke="none">
<path d="M4976 8129 c-376 -31 -749 -180 -1061 -424 -90 -70 -257 -239 -326
-330 -164 -214 -297 -483 -358 -722 -47 -184 -64 -461 -40 -671 13 -118 65
-324 113 -451 112 -292 327 -595 561 -790 386 -322 874 -491 1348 -467 384 19
689 118 1007 327 100 66 155 112 271 228 80 80 175 184 210 231 174 231 299
506 359 787 31 141 38 447 16 598 -68 452 -266 830 -607 1159 -306 295 -717
480 -1168 526 -115 11 -179 11 -325 -1z m413 -314 c519 -79 979 -420 1215
-900 109 -220 150 -365 165 -585 33 -493 -128 -922 -478 -1270 -267 -265 -556
-411 -922 -465 -104 -15 -382 -21 -413 -9 -14 5 -16 36 -16 238 0 128 3 235 6
238 3 4 20 2 37 -4 56 -17 270 -22 354 -8 103 16 240 62 333 112 142 74 142
73 -38 74 -185 0 -269 18 -421 90 -219 103 -373 255 -475 467 -208 432 -100
916 273 1228 182 153 464 252 672 237 l72 -6 -54 35 c-70 44 -240 98 -354 114
-132 17 -358 -4 -470 -44 -154 -55 -330 -169 -451 -292 -178 -180 -294 -402
-339 -649 -22 -118 -38 -144 -71 -112 -19 20 -157 29 -321 22 -194 -8 -184 -7
-177 -30 4 -17 3 -18 -5 -6 -31 44 19 302 96 495 64 161 127 267 249 420 269
337 664 564 1069 614 50 6 101 13 115 15 44 8 242 -3 349 -19z m-1882 -1597
c-2 -13 -4 -5 -4 17 -1 22 1 32 4 23 2 -10 2 -28 0 -40z"/>
<path d="M5775 6940 c-16 -25 -73 -117 -127 -205 -54 -88 -102 -165 -106 -172
-5 -8 -44 -2 -147 23 -77 19 -202 47 -277 63 -118 25 -136 26 -129 12 9 -16
91 -106 268 -294 l92 -98 -86 -127 c-48 -70 -113 -164 -146 -210 -33 -46 -57
-85 -54 -88 4 -4 402 135 475 166 21 9 31 3 95 -67 116 -127 280 -293 285
-289 2 2 -9 98 -24 213 -36 283 -37 274 6 294 19 9 128 50 242 90 115 40 207
78 205 83 -3 10 -252 84 -394 116 -50 12 -96 27 -101 33 -5 7 -15 102 -22 212
-7 110 -16 220 -19 245 l-7 45 -29 -45z"/>
<path d="M1640 3110 l0 -730 564 0 565 0 -6 163 c-3 89 -8 164 -10 167 -4 4
-392 9 -745 10 -5 0 -8 52 -8 115 l0 115 355 0 355 0 0 160 0 160 -355 0 -355
0 0 120 0 120 380 0 380 0 0 165 0 165 -560 0 -560 0 0 -730z"/>
<path d="M2850 3110 l0 -730 180 0 180 0 0 730 0 730 -180 0 -180 0 0 -730z"/>
<path d="M6200 3110 l0 -731 353 3 352 3 80 28 c125 44 220 102 310 192 44 44
97 109 118 145 115 198 127 455 31 659 -93 198 -228 322 -431 395 l-88 31
-362 3 -363 3 0 -731z m645 385 c114 -30 215 -118 257 -224 18 -45 22 -77 22
-162 1 -102 0 -107 -37 -181 -77 -156 -198 -218 -424 -218 l-93 0 0 400 0 400
108 0 c65 0 131 -6 167 -15z"/>
<path d="M7480 3675 l0 -165 311 0 310 0 -23 -32 c-126 -173 -348 -487 -482
-683 -90 -132 -192 -279 -225 -327 l-61 -88 660 0 660 0 0 170 0 170 -329 2
-329 3 170 230 c309 418 418 562 453 596 l35 34 0 128 0 127 -575 0 -575 0 0
-165z"/>
<path d="M5507 3804 c-4 -4 -7 -76 -7 -160 l0 -153 -92 -3 -93 -3 -3 -52 c-2
-29 -5 -53 -8 -53 -2 0 -21 11 -42 24 -96 63 -240 87 -369 63 -124 -24 -204
-66 -294 -156 -181 -182 -219 -421 -101 -645 74 -142 228 -256 390 -287 87
-16 232 -7 303 20 66 25 158 84 213 136 l40 37 -45 37 c-24 20 -80 68 -125
108 l-81 72 -29 -30 c-89 -93 -228 -90 -313 6 -45 52 -61 94 -61 162 0 72 25
127 75 171 47 42 74 52 137 52 67 0 133 -32 167 -81 14 -21 30 -38 35 -39 4 0
48 36 96 80 l88 80 56 0 56 0 0 -202 c0 -112 5 -234 10 -272 31 -215 214 -346
485 -346 135 0 125 -14 125 177 l0 165 -83 -7 c-107 -9 -153 7 -162 57 -3 18
-5 121 -3 228 l3 195 123 3 122 3 0 149 0 150 -125 0 -125 0 0 155 0 154 -162
0 c-90 0 -170 2 -179 6 -8 3 -18 2 -22 -1z"/>
<path d="M3721 3465 c-375 -68 -571 -495 -376 -820 72 -120 194 -218 320 -258
97 -30 260 -30 360 1 83 25 172 81 235 146 52 54 61 38 -89 155 l-104 82 -31
-30 c-75 -71 -184 -92 -271 -52 -39 17 -115 91 -115 111 0 6 131 10 370 10
l370 0 0 98 c0 172 -49 294 -164 407 -84 83 -170 129 -281 150 -91 18 -126 18
-224 0z m189 -307 c43 -22 90 -76 90 -104 0 -11 -35 -14 -175 -14 -193 0 -193
0 -152 61 28 42 98 79 152 79 22 0 61 -10 85 -22z"/>
<path d="M3525 2048 c-7 -20 -112 -301 -120 -320 -6 -15 -1 -18 34 -18 37 0
42 3 55 35 l15 35 70 0 69 0 12 -35 c11 -33 14 -35 56 -35 l44 0 -14 34 c-8
18 -38 97 -67 175 l-52 141 -49 0 c-30 0 -50 -5 -53 -12z m83 -145 l20 -53
-48 0 -49 0 21 61 c11 33 24 57 28 52 5 -4 17 -32 28 -60z"/>
<path d="M3980 1885 l0 -175 125 0 125 0 0 35 0 35 -85 0 -85 0 0 140 0 140
-40 0 -40 0 0 -175z"/>
<path d="M4511 2044 c-45 -24 -83 -84 -89 -143 -6 -63 23 -128 74 -167 33 -26
46 -29 108 -29 57 0 80 5 114 24 l42 25 0 78 0 78 -81 0 -80 0 3 -37 c3 -37 4
-38 41 -35 34 3 37 1 37 -22 0 -21 -7 -27 -39 -37 -109 -32 -186 103 -104 185
32 32 84 35 129 7 l32 -19 27 28 26 28 -33 23 c-44 32 -156 38 -207 13z"/>
<path d="M5020 1885 l0 -175 135 0 135 0 0 35 0 35 -95 0 -95 0 0 35 0 35 80
0 80 0 0 35 0 35 -80 0 -80 0 0 35 0 35 90 0 90 0 0 35 0 35 -130 0 -130 0 0
-175z"/>
<path d="M5540 1885 l0 -175 40 0 40 0 0 50 c0 49 1 50 30 50 25 0 35 -8 62
-50 32 -48 35 -50 80 -50 l48 0 -36 55 -35 56 30 35 c25 28 31 43 31 82 0 92
-47 122 -195 122 l-95 0 0 -175z m200 85 c45 -45 12 -90 -67 -90 l-53 0 0 55
0 55 50 0 c37 0 55 -5 70 -20z"/>
<path d="M6100 1885 l0 -175 40 0 40 0 0 175 0 175 -40 0 -40 0 0 -175z"/>
<path d="M6510 1893 c-36 -91 -66 -170 -68 -174 -2 -5 15 -9 37 -9 37 0 43 3
58 35 l17 35 72 0 72 0 12 -35 c11 -33 14 -35 54 -35 l43 0 -65 175 -65 175
-51 0 -51 -1 -65 -166z m149 10 l21 -53 -50 0 c-28 0 -50 2 -50 4 0 3 21 65
35 105 8 20 20 4 44 -56z"/>
</g>
</svg>
